<svg width="17" height="14" viewBox="0 0 17 14" fill="none" xmlns="http://www.w3.org/2000/svg">
<path d="M14.6771 4.08325C15.3021 3.6145 15.8646 3.052 16.3021 2.39575C15.7396 2.64575 15.0833 2.83325 14.4271 2.89575C15.1146 2.4895 15.6146 1.8645 15.8646 1.08325C15.2396 1.45825 14.5208 1.7395 13.8021 1.89575C13.1771 1.2395 12.3333 0.864502 11.3958 0.864502C9.58333 0.864502 8.11458 2.33325 8.11458 4.14575C8.11458 4.39575 8.14583 4.64575 8.20833 4.89575C5.48958 4.7395 3.05208 3.427 1.42708 1.45825C1.14583 1.927 0.989578 2.4895 0.989578 3.1145C0.989578 4.2395 1.55208 5.2395 2.45833 5.83325C1.92708 5.802 1.39583 5.677 0.958328 5.427V5.45825C0.958328 7.052 2.08333 8.3645 3.58333 8.677C3.33333 8.7395 3.02083 8.802 2.73958 8.802C2.52083 8.802 2.33333 8.77075 2.11458 8.7395C2.52083 10.052 3.73958 10.9895 5.17708 11.0208C4.05208 11.8958 2.64583 12.427 1.11458 12.427C0.833328 12.427 0.583328 12.3958 0.333328 12.3645C1.77083 13.302 3.48958 13.8333 5.36458 13.8333C11.3958 13.8333 14.6771 8.8645 14.6771 4.52075C14.6771 4.3645 14.6771 4.2395 14.6771 4.08325Z" fill="#D3D6D8"/>
</svg>
